<mxfile host="app.diagrams.net" modified="2020-09-12T01:55:00.628Z" agent="5.0 (Windows NT 10.0; Win64; x64) AppleWebKit/537.36 (KHTML, like Gecko) Chrome/85.0.4183.102 Safari/537.36" etag="_vePmJcdP4F3XSysAEFd" version="13.6.10" type="github">
  <diagram id="P-JO8rAt3TdP4NuigEDv" name="Page-1">
    <mxGraphModel dx="782" dy="469" grid="1" gridSize="10" guides="1" tooltips="1" connect="1" arrows="1" fold="1" page="1" pageScale="1" pageWidth="827" pageHeight="1169" math="0" shadow="0">
      <root>
        <mxCell id="0" />
        <mxCell id="1" parent="0" />
        <mxCell id="hyVQGrhSqwPtmVgviTRc-2" value="&lt;font style=&quot;font-size: 15px&quot;&gt;ORDER&lt;br&gt;&lt;br&gt;&lt;u&gt;&lt;b&gt;OrderID&lt;/b&gt;&lt;/u&gt;&lt;br&gt;&lt;b&gt;DateNeeded&lt;br&gt;DeliveryOption&lt;/b&gt;&lt;br&gt;&lt;b&gt;[TotalPrice]&lt;/b&gt;&lt;br&gt;Message&lt;/font&gt;" style="whiteSpace=wrap;html=1;align=center;" vertex="1" parent="1">
          <mxGeometry x="90" y="110" width="200" height="200" as="geometry" />
        </mxCell>
        <mxCell id="hyVQGrhSqwPtmVgviTRc-3" value="&lt;span style=&quot;font-size: 15px&quot;&gt;ITEM&lt;br&gt;&lt;br&gt;&lt;b&gt;ItemNo&lt;br&gt;&lt;br&gt;Type&lt;br&gt;{Flowers}&lt;br&gt;Price&lt;/b&gt;&lt;br&gt;&lt;/span&gt;" style="shape=ext;margin=3;double=1;whiteSpace=wrap;html=1;align=center;" vertex="1" parent="1">
          <mxGeometry x="480" y="60" width="170" height="200" as="geometry" />
        </mxCell>
        <mxCell id="hyVQGrhSqwPtmVgviTRc-5" value="" style="shape=link;html=1;" edge="1" parent="1">
          <mxGeometry width="100" relative="1" as="geometry">
            <mxPoint x="540" y="150" as="sourcePoint" />
            <mxPoint x="590" y="150" as="targetPoint" />
          </mxGeometry>
        </mxCell>
        <mxCell id="hyVQGrhSqwPtmVgviTRc-6" value="" style="edgeStyle=entityRelationEdgeStyle;fontSize=12;html=1;endArrow=ERoneToMany;startArrow=ERmandOne;exitX=1.04;exitY=0.447;exitDx=0;exitDy=0;exitPerimeter=0;entryX=0;entryY=0.447;entryDx=0;entryDy=0;entryPerimeter=0;" edge="1" parent="1" source="hyVQGrhSqwPtmVgviTRc-2" target="hyVQGrhSqwPtmVgviTRc-3">
          <mxGeometry width="100" height="100" relative="1" as="geometry">
            <mxPoint x="340" y="210" as="sourcePoint" />
            <mxPoint x="440" y="110" as="targetPoint" />
          </mxGeometry>
        </mxCell>
        <mxCell id="hyVQGrhSqwPtmVgviTRc-7" value="Contain" style="text;html=1;strokeColor=none;fillColor=none;align=center;verticalAlign=middle;whiteSpace=wrap;rounded=0;" vertex="1" parent="1">
          <mxGeometry x="350" y="150" width="40" height="20" as="geometry" />
        </mxCell>
      </root>
    </mxGraphModel>
  </diagram>
</mxfile>
